<svg width="36" height="36" viewBox="0 0 36 36" fill="none" xmlns="http://www.w3.org/2000/svg">
<path fill-rule="evenodd" clip-rule="evenodd" d="M8.53127 27.3277C7.94446 27.6872 7.50359 28.2425 7.28653 28.8955C7.06948 29.5485 7.09021 30.2573 7.34507 30.8965C7.59993 31.5357 8.07251 32.0643 8.67932 32.3889C9.28614 32.7134 9.98814 32.8131 10.6613 32.6702C11.3345 32.5273 11.9355 32.1511 12.3581 31.608C12.7808 31.065 12.9979 30.39 12.9712 29.7024C12.9444 29.0147 12.6755 28.3587 12.2119 27.8501C11.7483 27.3416 11.1199 27.0132 10.4376 26.9231C10.4012 26.7926 10.3678 26.6612 10.3375 26.5292C10.2044 25.9283 10.1006 25.3213 10.0262 24.7103C9.94586 24.0929 9.90039 23.4713 9.89004 22.8487C9.88802 22.6777 9.89289 22.5067 9.90463 22.3361C10.2781 22.2292 10.6536 22.1319 11.028 22.0473C11.457 21.95 11.7118 22.4558 11.917 22.8662L12.0007 23.0306H23.4281C23.6509 22.6085 24.1557 21.9354 24.6449 22.0473C25.1662 22.1659 25.6905 22.307 26.2099 22.4684L26.207 22.4694C26.205 22.4674 26.205 22.4674 26.207 22.4713C26.2108 22.485 26.2322 22.5492 26.2536 22.6853C26.278 22.8429 26.2945 23.0471 26.3023 23.2932C26.3159 23.7834 26.2877 24.3796 26.2303 24.9807C26.1719 25.5809 26.0854 26.1615 25.9881 26.6196C25.9667 26.7218 25.9453 26.8142 25.9239 26.8978H24.6449C24.4643 26.8979 24.2873 26.9483 24.1338 27.0433C23.9802 27.1383 23.8561 27.2741 23.7754 27.4357L22.8027 29.3809C22.7351 29.5159 22.6998 29.6647 22.6996 29.8157V31.761C22.6996 32.0189 22.8021 32.2663 22.9845 32.4487C23.1669 32.6311 23.4143 32.7336 23.6723 32.7336H25.6175V30.7883H24.6449V30.0452L25.246 28.8431H27.9344L28.5354 30.0452V30.7883H27.5628V32.7336H29.5081C29.766 32.7336 30.0134 32.6311 30.1958 32.4487C30.3782 32.2663 30.4807 32.0189 30.4807 31.761V29.8157C30.4806 29.6647 30.4453 29.5159 30.3776 29.3809L29.405 27.4357C29.3243 27.2741 29.2002 27.1383 29.0466 27.0433C28.893 26.9483 28.716 26.8979 28.5354 26.8978H27.9169C28.0209 26.3794 28.1075 25.7744 28.1658 25.1675C28.23 24.5119 28.2631 23.8321 28.2466 23.2387L28.2456 23.2115C32.1245 24.8504 35.3439 27.5456 35.3439 30.3701V35.6515H0.329041V30.3701C0.329041 27.4211 3.84025 24.6121 7.94574 23.0005C7.95644 23.6054 8.01383 24.2892 8.0965 24.9516C8.18598 25.6664 8.30756 26.3774 8.44179 26.963C8.47097 27.0884 8.50014 27.21 8.53127 27.3277ZM10.0554 30.8029C10.5787 30.8029 11.028 30.375 11.028 29.8157C11.028 29.2574 10.5787 28.8285 10.0554 28.8285C9.53211 28.8285 9.08275 29.2564 9.08275 29.8157C9.08275 30.374 9.53211 30.8029 10.0554 30.8029Z" fill="#489A91"/>
<path fill-rule="evenodd" clip-rule="evenodd" d="M17.8363 18.1437C19.9 18.1437 21.8792 17.3239 23.3384 15.8647C24.7976 14.4055 25.6174 12.4263 25.6174 10.3626C25.6174 8.29897 24.7976 6.31982 23.3384 4.86059C21.8792 3.40135 19.9 2.58156 17.8363 2.58156C15.7727 2.58156 13.7935 3.40135 12.3343 4.86059C10.875 6.31982 10.0553 8.29897 10.0553 10.3626C10.0553 12.4263 10.875 14.4055 12.3343 15.8647C13.7935 17.3239 15.7727 18.1437 17.8363 18.1437V18.1437ZM17.8363 20.089C23.2082 20.089 27.5627 15.7345 27.5627 10.3626C27.5627 4.99078 23.2082 0.636292 17.8363 0.636292C12.4645 0.636292 8.10999 4.99078 8.10999 10.3626C8.10999 15.7345 12.4645 20.089 17.8363 20.089Z" fill="#489A91"/>
<circle cx="17.8364" cy="10.3629" r="8.18427" fill="#489A91"/>
</svg>
