<svg width="18" height="22" viewBox="0 0 18 22" fill="none" xmlns="http://www.w3.org/2000/svg">
<path d="M17.0166 6.1376C17.157 6.27799 17.2366 6.46753 17.2366 6.66642V21.0968C17.2366 21.511 16.902 21.8456 16.4878 21.8456H1.51221C1.09804 21.8456 0.763428 21.511 0.763428 21.0968V1.62854C0.763428 1.21437 1.09804 0.879761 1.51221 0.879761H11.4499C11.6488 0.879761 11.8407 0.959319 11.9811 1.09971L17.0166 6.1376V6.1376ZM15.5097 7.01039L11.1059 2.60663V7.01039H15.5097ZM11.8365 14.2937C11.4813 14.282 11.1036 14.3093 10.6747 14.3629C10.1061 14.0122 9.72327 13.5304 9.45137 12.8226L9.47641 12.7201L9.50542 12.5989C9.60604 12.1746 9.6601 11.8651 9.67624 11.5529C9.68841 11.3173 9.6753 11.0999 9.63342 10.8984C9.5562 10.4634 9.2485 10.2091 8.86077 10.1934C8.49925 10.1787 8.16698 10.3806 8.08204 10.6934C7.94375 11.1993 8.02471 11.8651 8.31791 13.0004C7.94445 13.8907 7.45096 14.9346 7.11986 15.5168C6.67785 15.7447 6.33364 15.952 6.04443 16.1818C5.66302 16.4853 5.42481 16.7972 5.35929 17.1248C5.32747 17.2766 5.37544 17.475 5.48471 17.6377C5.60873 17.8221 5.79546 17.9419 6.01939 17.9592C6.58448 18.0029 7.27898 17.4203 8.04577 16.1045C8.12276 16.0788 8.20419 16.0517 8.30363 16.018L8.58209 15.9239C8.75828 15.8645 8.88605 15.8219 9.0124 15.7809C9.55995 15.6026 9.97411 15.4901 10.3508 15.426C11.0056 15.7765 11.7623 16.0063 12.2719 16.0063C12.6927 16.0063 12.977 15.7882 13.0797 15.4449C13.1698 15.1435 13.0984 14.794 12.9046 14.6007C12.7044 14.4039 12.336 14.3098 11.8365 14.2937V14.2937ZM6.03366 17.2986V17.2902L6.03671 17.2822C6.07094 17.1937 6.11489 17.1093 6.16774 17.0305C6.26789 16.8765 6.40571 16.7146 6.57653 16.5421C6.66825 16.4497 6.76372 16.3596 6.87581 16.2585C6.90084 16.2361 7.0609 16.0936 7.09085 16.0655L7.35222 15.8221L7.16221 16.1247C6.87393 16.5842 6.61327 16.9151 6.39004 17.1308C6.3079 17.2104 6.2356 17.2689 6.1771 17.3066C6.15779 17.3195 6.13735 17.3306 6.11603 17.3398C6.10644 17.3438 6.09801 17.3461 6.08959 17.3468C6.0807 17.348 6.07166 17.3467 6.06338 17.3433C6.05457 17.3396 6.04705 17.3334 6.04177 17.3255C6.03648 17.3175 6.03366 17.3082 6.03366 17.2986V17.2986ZM8.98058 12.191L8.9277 12.2846L8.89494 12.1821C8.8224 11.9521 8.76905 11.6056 8.75431 11.2929C8.73746 10.9373 8.76577 10.7239 8.87809 10.7239C9.0358 10.7239 9.1081 10.9766 9.11372 11.3568C9.11887 11.691 9.06622 12.0387 8.98034 12.191H8.98058ZM8.84463 13.5589L8.88043 13.4642L8.92933 13.5531C9.20287 14.0501 9.55784 14.4647 9.94814 14.7537L10.0324 14.8159L9.92966 14.837C9.54754 14.9161 9.19164 15.035 8.70493 15.2313C8.75571 15.2107 8.19904 15.4386 8.05818 15.4927L7.93533 15.5397L8.00085 15.4255C8.28983 14.9224 8.55682 14.3182 8.84439 13.5589H8.84463ZM12.5328 15.3434C12.3489 15.4159 11.953 15.3511 11.2559 15.0534L11.079 14.9781L11.2709 14.9641C11.8161 14.9236 12.2022 14.9535 12.4273 15.0359C12.5232 15.071 12.5871 15.1152 12.6154 15.1658C12.6303 15.1897 12.6353 15.2185 12.6294 15.246C12.6235 15.2736 12.607 15.2978 12.5836 15.3134C12.5687 15.3265 12.5515 15.3367 12.5328 15.3434V15.3434Z" fill="#489A91"/>
</svg>
