<svg width="39" height="39" viewBox="0 0 39 39" fill="none" xmlns="http://www.w3.org/2000/svg">
<path d="M21.4978 18.1164C21.2725 18.0821 21.0449 18.065 20.8171 18.0651H5.19482C4.01103 18.0651 2.87572 18.5353 2.03865 19.3724C1.20158 20.2095 0.731323 21.3448 0.731323 22.5286V25.8762C0.731323 30.4602 5.39122 33.6873 13.0059 33.6873C14.6396 33.6873 16.1393 33.5378 17.4828 33.2588C16.7363 31.6444 16.351 29.8866 16.3536 28.1079C16.3536 23.9881 18.3845 20.3414 21.4978 18.1164ZM28.6282 15.8333C30.1079 15.8333 31.5271 15.2455 32.5734 14.1991C33.6197 13.1528 34.2076 11.7337 34.2076 10.2539C34.2076 8.77419 33.6197 7.35505 32.5734 6.30872C31.5271 5.26238 30.1079 4.67456 28.6282 4.67456C27.1485 4.67456 25.7293 5.26238 24.683 6.30872C23.6366 7.35505 23.0488 8.77419 23.0488 10.2539C23.0488 11.7337 23.6366 13.1528 24.683 14.1991C25.7293 15.2455 27.1485 15.8333 28.6282 15.8333ZM20.8171 8.02218C20.8171 5.95054 19.9941 3.96375 18.5292 2.49888C17.0644 1.03401 15.0776 0.21106 13.0059 0.21106C10.9343 0.21106 8.94752 1.03401 7.48265 2.49888C6.01778 3.96375 5.19482 5.95054 5.19482 8.02218C5.19482 10.0938 6.01778 12.0806 7.48265 13.5455C8.94752 15.0104 10.9343 15.8333 13.0059 15.8333C15.0776 15.8333 17.0644 15.0104 18.5292 13.5455C19.9941 12.0806 20.8171 10.0938 20.8171 8.02218V8.02218ZM38.6711 28.1079C38.6711 30.7715 37.613 33.3259 35.7296 35.2093C33.8462 37.0927 31.2917 38.1508 28.6282 38.1508C25.9647 38.1508 23.4102 37.0927 21.5268 35.2093C19.6434 33.3259 18.5853 30.7715 18.5853 28.1079C18.5853 25.4444 19.6434 22.89 21.5268 21.0065C23.4102 19.1231 25.9647 18.0651 28.6282 18.0651C31.2917 18.0651 33.8462 19.1231 35.7296 21.0065C37.613 22.89 38.6711 25.4444 38.6711 28.1079V28.1079ZM33.8817 23.9703C33.7781 23.8663 33.6549 23.7839 33.5194 23.7276C33.3838 23.6714 33.2385 23.6424 33.0917 23.6424C32.9449 23.6424 32.7996 23.6714 32.664 23.7276C32.5284 23.7839 32.4053 23.8663 32.3017 23.9703L26.3964 29.8777L24.9547 28.4338C24.7452 28.2242 24.461 28.1065 24.1647 28.1065C23.8684 28.1065 23.5842 28.2242 23.3747 28.4338C23.1651 28.6433 23.0474 28.9275 23.0474 29.2238C23.0474 29.5201 23.1651 29.8043 23.3747 30.0138L25.6064 32.2456C25.7101 32.3495 25.8332 32.432 25.9688 32.4882C26.1043 32.5445 26.2497 32.5734 26.3964 32.5734C26.5432 32.5734 26.6886 32.5445 26.8241 32.4882C26.9597 32.432 27.0828 32.3495 27.1865 32.2456L33.8817 25.5503C33.9856 25.4467 34.0681 25.3235 34.1244 25.188C34.1806 25.0524 34.2096 24.9071 34.2096 24.7603C34.2096 24.6135 34.1806 24.4682 34.1244 24.3326C34.0681 24.1971 33.9856 24.0739 33.8817 23.9703V23.9703Z" fill="#489A91"/>
</svg>
